<svg xmlns="http://www.w3.org/2000/svg" width="24" height="24" viewBox="0 0 24 24" fill="none" stroke="#1f8a82" stroke-width="2" stroke-linecap="round" stroke-linejoin="round">
  <path d="M12 15.5a3.5 3.5 0 1 0 0-7 3.5 3.5 0 0 0 0 7Z"/>
  <path d="M19.4 15a1.8 1.8 0 0 0 .36 1.98l.04.04a2.1 2.1 0 1 1-2.98 2.98l-.04-.04A1.8 1.8 0 0 0 14.8 19.6a1.8 1.8 0 0 0-1.1 1.65V21.4a2.1 2.1 0 1 1-4.2 0v-.15A1.8 1.8 0 0 0 8.4 19.6a1.8 1.8 0 0 0-1.98.36l-.04.04a2.1 2.1 0 1 1-2.98-2.98l.04-.04A1.8 1.8 0 0 0 3.8 15a1.8 1.8 0 0 0-1.65-1.1H2a2.1 2.1 0 1 1 0-4.2h.15A1.8 1.8 0 0 0 3.8 8.6a1.8 1.8 0 0 0-.36-1.98l-.04-.04A2.1 2.1 0 1 1 6.38 3.6l.04.04A1.8 1.8 0 0 0 8.4 4a1.8 1.8 0 0 0 1.1-1.65V2.2a2.1 2.1 0 1 1 4.2 0v.15A1.8 1.8 0 0 0 14.8 4a1.8 1.8 0 0 0 1.98-.36l.04-.04a2.1 2.1 0 1 1 2.98 2.98l-.04.04A1.8 1.8 0 0 0 19.4 8.6a1.8 1.8 0 0 0 1.65 1.1h.15a2.1 2.1 0 1 1 0 4.2h-.15A1.8 1.8 0 0 0 19.4 15Z"/>
</svg>
